<svg width="27" height="14" viewBox="0 0 27 14" fill="none" xmlns="http://www.w3.org/2000/svg">
<path id="Vector" d="M0 6.52734C0 10.3477 2.90039 13.125 6.48633 13.125H19.7637C23.3496 13.125 26.25 10.3477 26.25 6.52734C26.25 2.70703 23.3496 0 19.7637 0H6.48633C2.90039 0 0 2.71289 0 6.52734ZM21.8438 5.23242C22.4707 5.23242 22.9805 5.73047 22.9805 6.3457C22.9805 6.96094 22.4707 7.45898 21.8438 7.45898C21.2168 7.45898 20.707 6.96094 20.707 6.3457C20.707 5.73047 21.2168 5.23242 21.8438 5.23242ZM19.3535 2.80078C19.9863 2.80078 20.4961 3.29883 20.4961 3.91406C20.4961 4.5293 19.9863 5.02734 19.3535 5.02734C18.7266 5.02734 18.2168 4.5293 18.2168 3.91406C18.2168 3.29883 18.7266 2.80078 19.3535 2.80078ZM19.3535 7.66992C19.9863 7.66992 20.4961 8.16211 20.4961 8.7832C20.4961 9.39844 19.9863 9.89062 19.3535 9.89062C18.7266 9.89062 18.2168 9.39258 18.2168 8.7832C18.2227 8.16211 18.7266 7.66992 19.3535 7.66992ZM16.8633 5.23242C17.4961 5.23242 18.0059 5.73047 18.0059 6.3457C18.0059 6.96094 17.4961 7.45898 16.8633 7.45898C16.2363 7.45898 15.7266 6.96094 15.7266 6.3457C15.7266 5.73047 16.2363 5.23242 16.8633 5.23242ZM3.28125 5.93555C3.28125 5.77734 3.38672 5.625 3.5332 5.625H3.59766H5.625V3.38672V3.35156C5.625 3.1875 5.74805 3.04688 5.90625 3.04688H7.18945C7.34766 3.04688 7.50586 3.1875 7.50586 3.35156V3.38086V5.625H9.68555H9.7207C9.87891 5.625 10.0254 5.77148 10.0254 5.93555V7.20703C10.0254 7.37695 9.87891 7.5 9.7207 7.5H9.69141H7.5V9.76172V9.79102C7.5 9.95508 7.3418 10.0781 7.18359 10.0781H5.90039C5.74805 10.0781 5.61914 9.9668 5.61914 9.81445V9.75V7.5H3.58008H3.55078C3.39258 7.5 3.28125 7.37695 3.28125 7.20703V5.93555Z" fill="black"/>
</svg>
