<svg width="24" height="24" viewBox="0 0 24 24" fill="none" xmlns="http://www.w3.org/2000/svg">
<g id="Group 6">
<rect id="Rectangle 14" width="24" height="24" rx="12" fill="#7AE582"/>
<path id="Vector" d="M8.14287 16.8568H15.8558C16.0925 16.8568 16.2844 17.0487 16.2844 17.2854C16.2844 17.5024 16.1232 17.6817 15.914 17.7101L15.8558 17.714H8.14287C7.90617 17.714 7.71429 17.5221 7.71429 17.2854C7.71429 17.0684 7.87552 16.8891 8.08471 16.8608L8.14287 16.8568ZM11.9334 6.28674L12 6.2829C12.293 6.2829 12.5346 6.50349 12.5676 6.78769L12.5714 6.85433V14.0486L14.4538 12.167C14.6598 11.9611 14.9839 11.9452 15.2081 12.1196L15.2619 12.1671C15.4678 12.3731 15.4837 12.6972 15.3093 12.9214L15.2618 12.9752L12.406 15.8304C12.2001 16.0363 11.8762 16.0522 11.652 15.8781L11.5982 15.8307L8.73908 12.9755C8.51577 12.7524 8.51552 12.3907 8.73853 12.1673C8.94438 11.9612 9.2685 11.9451 9.49279 12.1193L9.54665 12.1668L11.4286 14.0457V6.85433C11.4286 6.56128 11.6492 6.31975 11.9334 6.28674Z" fill="black"/>
</g>
</svg>
