<svg width="15" height="15" viewBox="0 0 15 15" fill="none" xmlns="http://www.w3.org/2000/svg">
<g id="Frame">
<path id="Vector" d="M7.49956 1.46887C7.19844 1.46868 6.89725 1.62546 6.74237 1.9392L5.26868 4.92528L1.97334 5.40412C1.28128 5.50468 1.00494 6.35518 1.50573 6.84331L3.89025 9.16762L3.32734 12.4496C3.23376 12.9952 3.66752 13.4382 4.1594 13.4379C4.28933 13.438 4.42335 13.4072 4.5528 13.3391L7.49963 11.7899L10.4464 13.3391C11.0654 13.6646 11.7889 13.1389 11.6707 12.4496L11.1077 9.16762L13.4923 6.84331C13.9931 6.35518 13.7168 5.50468 13.0247 5.40412L9.72937 4.92528L8.25562 1.9392C8.10106 1.62599 7.80019 1.46922 7.49956 1.46887ZM7.5 10.8399V2.52646L8.9105 5.38438C9.03337 5.63341 9.27094 5.80602 9.54575 5.84595L12.7019 6.30456L10.4181 8.53068C10.2192 8.72456 10.1285 9.00381 10.1754 9.27756L10.7146 12.4209L7.89163 10.9368C7.76906 10.8724 7.63456 10.8401 7.5 10.8399Z" fill="#004E64"/>
</g>
</svg>
